<svg width="77" height="77" viewBox="0 0 77 77" fill="none" xmlns="http://www.w3.org/2000/svg">
<g clip-path="url(#clip0_1_1703)">
<rect width="77" height="77" fill="url(#paint0_linear_1_1703)"/>
<path d="M45.9395 19.0352H16.6133V29.6309H45.9395V19.0352ZM19.7383 34.6602C19.416 34.6602 19.1523 34.3965 19.1523 34.0742C19.1523 33.752 19.416 33.4883 19.7383 33.4883H28.3906C28.7129 33.4883 28.9766 33.752 28.9766 34.0742C28.9766 34.3965 28.7129 34.6602 28.3906 34.6602H19.7383ZM19.7383 38.3223C19.416 38.3223 19.1523 38.0586 19.1523 37.7363C19.1523 37.4141 19.416 37.1504 19.7383 37.1504H28.3906C28.7129 37.1504 28.9766 37.4141 28.9766 37.7363C28.9766 38.0586 28.7129 38.3223 28.3906 38.3223H19.7383ZM19.7383 41.9844C19.416 41.9844 19.1523 41.7207 19.1523 41.3984C19.1523 41.0762 19.416 40.8125 19.7383 40.8125H28.3906C28.7129 40.8125 28.9766 41.0762 28.9766 41.3984C28.9766 41.7207 28.7129 41.9844 28.3906 41.9844H19.7383ZM19.7383 45.6465C19.416 45.6465 19.1523 45.3828 19.1523 45.0605C19.1523 44.7383 19.416 44.4746 19.7383 44.4746H24.0645C24.3867 44.4746 24.6504 44.7383 24.6504 45.0605C24.6504 45.3828 24.3867 45.6465 24.0645 45.6465H19.7383ZM35.4219 27.3262C35.168 27.5215 34.7969 27.4727 34.6016 27.2188C34.4062 26.9648 34.4551 26.5937 34.709 26.3984L37.4043 24.3281L34.709 22.2578C34.4551 22.0625 34.4062 21.6914 34.6016 21.4375C34.7969 21.1836 35.168 21.1348 35.4219 21.3301L38.7227 23.8594C39.0254 24.0938 39.0449 24.5527 38.7324 24.7969L35.4219 27.3262ZM32.4434 21.1445C32.5996 20.8613 32.9609 20.7734 33.2441 20.9297C33.5273 21.0957 33.6152 21.4473 33.459 21.7305L30.1191 27.5117C29.9531 27.7949 29.6016 27.8828 29.3184 27.7266C29.0352 27.5605 28.9473 27.209 29.1035 26.9258L32.4434 21.1445ZM27.8438 26.3984C28.0977 26.5937 28.1465 26.9648 27.9512 27.2188C27.7559 27.4727 27.3848 27.5215 27.1309 27.3262L23.8203 24.7969C23.5078 24.5527 23.5176 24.0938 23.8301 23.8594L27.1309 21.3301C27.3848 21.1348 27.7559 21.1836 27.9512 21.4375C28.1465 21.6914 28.0977 22.0625 27.8438 22.2578L25.1387 24.3281L27.8438 26.3984ZM50.6465 42.5508C49.9043 42.0723 49.0059 41.8379 48.0977 41.9355C47.8145 41.9746 47.5312 41.7891 47.4629 41.5059C46.4863 37.8145 43.1172 35.168 39.2109 35.168C34.0156 35.168 30.0312 39.7676 30.7539 44.9043C30.7832 45.1582 30.6562 45.4121 30.4121 45.5195C26.5938 47.2188 25.6465 52.248 28.625 55.2168C29.709 56.3008 31.2031 56.9648 32.8535 56.9648H53.5957C55.207 56.916 56.6621 56.2227 57.707 55.1387C60.0508 52.7168 59.9336 48.8301 57.4434 46.5547C56.2227 45.4414 54.5723 44.8555 52.8535 45.0117C52.5898 45.0312 52.3359 44.875 52.248 44.6113C51.9551 43.7324 51.3789 43.0195 50.6465 42.5508ZM25.998 53.0391C25.0117 49.7383 26.5156 46.2129 29.543 44.6309C28.9961 38.9277 33.4785 33.9863 39.2109 33.9863C41.7891 33.9863 44.1719 35.002 45.9395 36.7012V30.8027H16.6133V53.0391H25.998ZM34.2402 48.3809C34.4648 48.1562 34.8359 48.1562 35.0703 48.3809C35.2949 48.6152 35.2949 48.9863 35.0703 49.2109L34.6211 49.6602C39.748 53.6641 46.9551 53.6641 52.082 49.6602L51.6328 49.2109C51.4082 48.9766 51.4082 48.6055 51.6328 48.3809C51.8672 48.1562 52.2383 48.1562 52.4629 48.3809L54.123 50.041C54.3477 50.2754 54.3477 50.6465 54.123 50.8711C53.8887 51.0957 53.5176 51.0957 53.293 50.8711L52.9219 50.5C47.3262 54.9629 39.3867 54.9629 33.791 50.5L33.4199 50.8711C33.1855 51.0957 32.8145 51.0957 32.5898 50.8711C32.3555 50.6367 32.3555 50.2656 32.5898 50.041L34.2402 48.3809Z" fill="white"/>
</g>
<defs>
<linearGradient id="paint0_linear_1_1703" x1="77" y1="38.5" x2="0" y2="38.5" gradientUnits="userSpaceOnUse">
<stop stop-color="#FFAC34"/>
<stop offset="1" stop-color="#FEC539"/>
</linearGradient>
<clipPath id="clip0_1_1703">
<rect width="77" height="77" fill="white"/>
</clipPath>
</defs>
</svg>
