<svg width="77" height="77" viewBox="0 0 77 77" fill="none" xmlns="http://www.w3.org/2000/svg">
<rect width="77" height="77" fill="url(#paint0_linear_1_1699)"/>
<g clip-path="url(#clip0_1_1699)">
<path d="M53.9375 41.0977C54.5469 41.707 54.9258 42.5508 54.9258 43.4814C54.9258 44.4141 54.5469 45.2559 53.9375 45.8672C53.3262 46.4766 52.4844 46.8525 51.5537 46.8525C50.6211 46.8525 49.7793 46.4766 49.168 45.8672C48.5586 45.2559 48.1826 44.4141 48.1826 43.4814C48.1826 42.5518 48.5596 41.707 49.168 41.0977C49.7793 40.4883 50.6211 40.1094 51.5537 40.1094C52.4844 40.1094 53.3262 40.4883 53.9375 41.0977ZM63.001 42.7725V44.1924C63.001 44.6162 62.7383 44.9785 62.334 45.1084L61.3262 45.4346C61.0107 45.5371 60.7861 45.7695 60.6982 46.0879C60.4961 46.7969 60.2139 47.4717 59.8623 48.1035C59.7021 48.3916 59.6963 48.7148 59.8457 49.0088L60.3271 49.9551C60.5205 50.3311 60.4492 50.7715 60.1504 51.0732L59.1455 52.0781C58.8467 52.377 58.4062 52.4463 58.0273 52.2549L57.0811 51.7734C56.7881 51.6211 56.4639 51.627 56.1758 51.79C55.5449 52.1416 54.8691 52.4238 54.1602 52.623C53.8418 52.7148 53.6094 52.9385 53.5098 53.2539L53.1807 54.2617C53.0508 54.666 52.6904 54.9258 52.2646 54.9258H50.8447C50.4209 54.9258 50.0586 54.665 49.9287 54.2617L49.6025 53.2539C49.5 52.9385 49.2676 52.7139 48.9492 52.623C48.2402 52.4238 47.5654 52.1416 46.9336 51.79C46.6455 51.6299 46.3223 51.6211 46.0283 51.7734L45.082 52.2549C44.7051 52.4463 44.2656 52.377 43.9639 52.0781L42.959 51.0732C42.6602 50.7715 42.5908 50.3311 42.7822 49.9551L43.2637 49.0088C43.416 48.7158 43.4102 48.3916 43.2471 48.1035C42.8955 47.4727 42.6133 46.7969 42.4141 46.0879C42.3223 45.7695 42.0986 45.5371 41.7832 45.4346L40.7754 45.1084C40.3711 44.9785 40.1113 44.6152 40.1113 44.1924V42.7725C40.1113 42.3457 40.3711 41.9863 40.7754 41.8564L41.7861 41.5273C42.0986 41.4248 42.3232 41.1953 42.4141 40.877C42.6162 40.168 42.8955 39.4932 43.2471 38.8613C43.4102 38.5732 43.416 38.25 43.2637 37.9561L42.7822 37.0098C42.5908 36.6309 42.6602 36.1904 42.959 35.8916L43.9639 34.8867C44.2656 34.5879 44.7061 34.5156 45.082 34.71L46.0283 35.1914C46.3213 35.3408 46.6455 35.335 46.9336 35.1748C47.5645 34.8232 48.2402 34.541 48.9492 34.3389C49.2676 34.25 49.5 34.0264 49.6025 33.7109L49.9287 32.7031C50.0586 32.2988 50.4219 32.0361 50.8447 32.0361H52.2646C52.6914 32.0361 53.0508 32.2988 53.1807 32.7031L53.5098 33.7109C53.6094 34.0264 53.8418 34.251 54.1602 34.3389C54.8691 34.541 55.5439 34.8232 56.1758 35.1748C56.4639 35.335 56.7871 35.3408 57.0811 35.1914L58.0273 34.71C58.4062 34.5166 58.8467 34.5879 59.1455 34.8867L60.1504 35.8916C60.4492 36.1904 60.5215 36.6309 60.3271 37.0098L59.8457 37.9561C59.6963 38.249 59.7021 38.5732 59.8623 38.8613C60.2139 39.4922 60.4961 40.168 60.6982 40.877C60.7871 41.1953 61.0107 41.4277 61.3262 41.5273L62.334 41.8564C62.7383 41.9863 63.001 42.3457 63.001 42.7725ZM56.5371 43.4814C56.5371 42.1055 55.9805 40.8603 55.0781 39.958C54.1758 39.0557 52.9297 38.4961 51.5537 38.4961C50.1748 38.4961 48.9297 39.0557 48.0273 39.958C47.125 40.8603 46.5684 42.1064 46.5684 43.4814C46.5684 44.8604 47.125 46.1055 48.0273 47.0078C48.9297 47.9102 50.1758 48.4668 51.5537 48.4668C52.9297 48.4668 54.1748 47.9102 55.0781 47.0078C55.9805 46.1055 56.5371 44.8594 56.5371 43.4814ZM40.7168 54.1445H37.1924L36.1182 51.1494H28.4307L27.3594 54.1445H23.835C23.3896 54.1445 23.0264 54.5049 23.0264 54.9502C23.0264 55.3955 23.3887 55.7588 23.835 55.7588H40.7158C41.1611 55.7588 41.5244 55.3965 41.5244 54.9502C41.5254 54.5039 41.1631 54.1445 40.7168 54.1445ZM38.5303 42.3291H12.999V22.7666C12.999 21.377 14.1367 20.2422 15.5264 20.2422H49.0273C50.417 20.2422 51.5547 21.377 51.5547 22.7666V30.4209H50.8438C49.7197 30.4209 48.7402 31.1348 48.3936 32.2041L48.1689 32.8877C47.5791 33.0762 47.0059 33.3145 46.4551 33.5996L45.8125 33.2725C44.8135 32.7627 43.6143 32.9512 42.8203 33.7461L41.8154 34.751C41.0205 35.543 40.833 36.7412 41.3418 37.7432L41.668 38.3857C41.3857 38.9365 41.1475 39.5098 40.959 40.0996L40.2725 40.3213C39.3496 40.6211 38.6904 41.3965 38.5303 42.3291ZM23.1523 31.6885L28.4951 28.7041C28.8828 28.4883 29.0234 27.998 28.8076 27.6104C28.5918 27.2227 28.1016 27.082 27.7139 27.2979L21.1201 30.9795C20.9902 31.0518 20.877 31.1592 20.7988 31.2979C20.583 31.6855 20.7236 32.1758 21.1113 32.3916L27.7139 36.0791C28.1016 36.2949 28.5918 36.1562 28.8076 35.7666C29.0234 35.3789 28.8828 34.8887 28.4951 34.6729L23.1523 31.6885ZM33.835 24.8926C33.4004 24.793 32.9688 25.0645 32.8691 25.499L30.1152 37.5215C30.0156 37.9531 30.2871 38.3848 30.7188 38.4844C31.1533 38.584 31.585 38.3125 31.6846 37.8779L34.4385 25.8584C34.5381 25.4238 34.2666 24.9922 33.835 24.8926ZM36.8389 36.0791L43.4414 32.3916C43.8291 32.1758 43.9697 31.6855 43.7539 31.2979C43.6768 31.1592 43.5625 31.0518 43.4326 30.9795L36.8389 27.2979C36.4512 27.082 35.9609 27.2227 35.7451 27.6104C35.5293 27.998 35.6699 28.4883 36.0576 28.7041L41.4004 31.6885L36.0576 34.6729C35.6699 34.8887 35.5293 35.3789 35.7451 35.7666C35.9609 36.1562 36.4512 36.2949 36.8389 36.0791ZM40.2744 46.6426C39.2061 46.2969 38.4941 45.3164 38.4941 44.1924V43.9434H12.999V47.0107C12.999 48.3975 14.1367 49.5352 15.5264 49.5352H41.207C41.2461 49.4297 41.29 49.3252 41.3428 49.2227L41.6689 48.5801C41.3867 48.0293 41.1484 47.4561 40.957 46.8662L40.2744 46.6426Z" fill="white"/>
</g>
<defs>
<linearGradient id="paint0_linear_1_1699" x1="77" y1="38.5" x2="0" y2="38.5" gradientUnits="userSpaceOnUse">
<stop stop-color="#F44F2C"/>
<stop offset="1" stop-color="#CB0E69"/>
</linearGradient>
<clipPath id="clip0_1_1699">
<rect width="50" height="50" fill="white" transform="translate(13 13)"/>
</clipPath>
</defs>
</svg>
