<svg width="1024" height="1024" viewBox="0 0 1024 1024" fill="none" xmlns="http://www.w3.org/2000/svg">
<mask id="mask0_11_1540" style="mask-type:luminance" maskUnits="userSpaceOnUse" x="185" y="268" width="654" height="488">
<path d="M838.667 268H185.333V756H838.667V268Z" fill="white"/>
</mask>
<g mask="url(#mask0_11_1540)">
<mask id="mask1_11_1540" style="mask-type:luminance" maskUnits="userSpaceOnUse" x="596" y="269" width="162" height="141">
<path d="M596.656 269.328H757.625V409.969H596.656V269.328Z" fill="white"/>
</mask>
<g mask="url(#mask1_11_1540)">
<mask id="mask2_11_1540" style="mask-type:luminance" maskUnits="userSpaceOnUse" x="596" y="269" width="162" height="141">
<path d="M677.026 269.328L757.391 409.969H596.656L677.026 269.328Z" fill="white"/>
</mask>
<g mask="url(#mask2_11_1540)">
<mask id="mask3_11_1540" style="mask-type:luminance" maskUnits="userSpaceOnUse" x="596" y="268" width="163" height="143">
<path d="M758.667 268H596V410.667H758.667V268Z" fill="white"/>
</mask>
<g mask="url(#mask3_11_1540)">
<mask id="mask4_11_1540" style="mask-type:luminance" maskUnits="userSpaceOnUse" x="596" y="269" width="162" height="141">
<path d="M596.656 269.328H757.438V409.969H596.656V269.328Z" fill="white"/>
</mask>
<g mask="url(#mask4_11_1540)">
<mask id="mask5_11_1540" style="mask-type:luminance" maskUnits="userSpaceOnUse" x="596" y="269" width="162" height="141">
<path d="M677.026 269.328L757.391 409.969H596.656L677.026 269.328Z" fill="white"/>
</mask>
<g mask="url(#mask5_11_1540)">
<path d="M596.656 269.328H757.625V409.969H596.656V269.328Z" fill="#5C9AF7"/>
</g>
</g>
</g>
</g>
</g>
<mask id="mask6_11_1540" style="mask-type:luminance" maskUnits="userSpaceOnUse" x="676" y="269" width="162" height="141">
<path d="M676.781 269.318H837.75V409.958H676.781V269.318Z" fill="white"/>
</mask>
<g mask="url(#mask6_11_1540)">
<mask id="mask7_11_1540" style="mask-type:luminance" maskUnits="userSpaceOnUse" x="677" y="269" width="161" height="141">
<path d="M757.385 409.958L677.021 269.318H837.75L757.385 409.958Z" fill="white"/>
</mask>
<g mask="url(#mask7_11_1540)">
<mask id="mask8_11_1540" style="mask-type:luminance" maskUnits="userSpaceOnUse" x="676" y="268" width="163" height="143">
<path d="M838.667 268H676V410.667H838.667V268Z" fill="white"/>
</mask>
<g mask="url(#mask8_11_1540)">
<mask id="mask9_11_1540" style="mask-type:luminance" maskUnits="userSpaceOnUse" x="676" y="269" width="162" height="141">
<path d="M676.802 269.318H837.75V409.958H676.802V269.318Z" fill="white"/>
</mask>
<g mask="url(#mask9_11_1540)">
<mask id="mask10_11_1540" style="mask-type:luminance" maskUnits="userSpaceOnUse" x="677" y="269" width="161" height="141">
<path d="M757.385 409.958L677.021 269.318H837.75L757.385 409.958Z" fill="white"/>
</mask>
<g mask="url(#mask10_11_1540)">
<path d="M837.75 409.958H676.781V269.318H837.75V409.958Z" fill="#68D1EE"/>
</g>
</g>
</g>
</g>
</g>
<mask id="mask11_11_1540" style="mask-type:luminance" maskUnits="userSpaceOnUse" x="435" y="269" width="162" height="141">
<path d="M435.922 269.328H596.896V409.969H435.922V269.328Z" fill="white"/>
</mask>
<g mask="url(#mask11_11_1540)">
<mask id="mask12_11_1540" style="mask-type:luminance" maskUnits="userSpaceOnUse" x="435" y="269" width="162" height="141">
<path d="M516.292 269.328L596.656 409.969H435.922L516.292 269.328Z" fill="white"/>
</mask>
<g mask="url(#mask12_11_1540)">
<mask id="mask13_11_1540" style="mask-type:luminance" maskUnits="userSpaceOnUse" x="434" y="268" width="164" height="143">
<path d="M597.333 268H434.667V410.667H597.333V268Z" fill="white"/>
</mask>
<g mask="url(#mask13_11_1540)">
<mask id="mask14_11_1540" style="mask-type:luminance" maskUnits="userSpaceOnUse" x="435" y="269" width="162" height="141">
<path d="M435.922 269.328H596.802V409.969H435.922V269.328Z" fill="white"/>
</mask>
<g mask="url(#mask14_11_1540)">
<mask id="mask15_11_1540" style="mask-type:luminance" maskUnits="userSpaceOnUse" x="435" y="269" width="162" height="141">
<path d="M516.292 269.328L596.656 409.969H435.922L516.292 269.328Z" fill="white"/>
</mask>
<g mask="url(#mask15_11_1540)">
<path d="M435.922 269.328H596.896V409.969H435.922V269.328Z" fill="#C90E69"/>
</g>
</g>
</g>
</g>
</g>
<mask id="mask16_11_1540" style="mask-type:luminance" maskUnits="userSpaceOnUse" x="516" y="269" width="162" height="141">
<path d="M516.047 269.318H677.021V409.958H516.047V269.318Z" fill="white"/>
</mask>
<g mask="url(#mask16_11_1540)">
<mask id="mask17_11_1540" style="mask-type:luminance" maskUnits="userSpaceOnUse" x="516" y="269" width="162" height="141">
<path d="M596.651 409.958L516.286 269.318H677.021L596.651 409.958Z" fill="white"/>
</mask>
<g mask="url(#mask17_11_1540)">
<mask id="mask18_11_1540" style="mask-type:luminance" maskUnits="userSpaceOnUse" x="516" y="268" width="162" height="143">
<path d="M677.333 268H516V410.667H677.333V268Z" fill="white"/>
</mask>
<g mask="url(#mask18_11_1540)">
<mask id="mask19_11_1540" style="mask-type:luminance" maskUnits="userSpaceOnUse" x="516" y="269" width="162" height="141">
<path d="M516.161 269.318H677.021V409.958H516.161V269.318Z" fill="white"/>
</mask>
<g mask="url(#mask19_11_1540)">
<mask id="mask20_11_1540" style="mask-type:luminance" maskUnits="userSpaceOnUse" x="516" y="269" width="162" height="141">
<path d="M596.651 409.958L516.286 269.318H677.021L596.651 409.958Z" fill="white"/>
</mask>
<g mask="url(#mask20_11_1540)">
<path d="M677.021 409.958H516.047V269.318H677.021V409.958Z" fill="#F44F2B"/>
</g>
</g>
</g>
</g>
</g>
<mask id="mask21_11_1540" style="mask-type:luminance" maskUnits="userSpaceOnUse" x="355" y="269" width="162" height="141">
<path d="M355.318 269.318H516.286V409.958H355.318V269.318Z" fill="white"/>
</mask>
<g mask="url(#mask21_11_1540)">
<mask id="mask22_11_1540" style="mask-type:luminance" maskUnits="userSpaceOnUse" x="355" y="269" width="162" height="141">
<path d="M435.917 409.958L355.552 269.318H516.286L435.917 409.958Z" fill="white"/>
</mask>
<g mask="url(#mask22_11_1540)">
<mask id="mask23_11_1540" style="mask-type:luminance" maskUnits="userSpaceOnUse" x="354" y="268" width="164" height="143">
<path d="M517.333 268H354.667V410.667H517.333V268Z" fill="white"/>
</mask>
<g mask="url(#mask23_11_1540)">
<mask id="mask24_11_1540" style="mask-type:luminance" maskUnits="userSpaceOnUse" x="355" y="269" width="162" height="141">
<path d="M355.521 269.318H516.286V409.958H355.521V269.318Z" fill="white"/>
</mask>
<g mask="url(#mask24_11_1540)">
<mask id="mask25_11_1540" style="mask-type:luminance" maskUnits="userSpaceOnUse" x="355" y="269" width="162" height="141">
<path d="M435.917 409.958L355.552 269.318H516.286L435.917 409.958Z" fill="white"/>
</mask>
<g mask="url(#mask25_11_1540)">
<path d="M516.286 409.958H355.318V269.318H516.286V409.958Z" fill="#FFAB33"/>
</g>
</g>
</g>
</g>
</g>
<mask id="mask26_11_1540" style="mask-type:luminance" maskUnits="userSpaceOnUse" x="275" y="269" width="161" height="141">
<path d="M275.193 269.328H436V409.969H275.193V269.328Z" fill="white"/>
</mask>
<g mask="url(#mask26_11_1540)">
<mask id="mask27_11_1540" style="mask-type:luminance" maskUnits="userSpaceOnUse" x="275" y="269" width="161" height="141">
<path d="M355.557 269.328L435.922 409.969H275.193L355.557 269.328Z" fill="white"/>
</mask>
<g mask="url(#mask27_11_1540)">
<mask id="mask28_11_1540" style="mask-type:luminance" maskUnits="userSpaceOnUse" x="274" y="268" width="162" height="143">
<path d="M436 268H274.667V410.667H436V268Z" fill="white"/>
</mask>
<g mask="url(#mask28_11_1540)">
<mask id="mask29_11_1540" style="mask-type:luminance" maskUnits="userSpaceOnUse" x="275" y="269" width="161" height="141">
<path d="M275.193 269.328H436V409.969H275.193V269.328Z" fill="white"/>
</mask>
<g mask="url(#mask29_11_1540)">
<mask id="mask30_11_1540" style="mask-type:luminance" maskUnits="userSpaceOnUse" x="275" y="269" width="161" height="141">
<path d="M355.557 269.328L435.922 409.969H275.193L355.557 269.328Z" fill="white"/>
</mask>
<g mask="url(#mask30_11_1540)">
<path d="M275.193 269.328H436.161V409.969H275.193V269.328Z" fill="#FFC539"/>
</g>
</g>
</g>
</g>
</g>
<mask id="mask31_11_1540" style="mask-type:luminance" maskUnits="userSpaceOnUse" x="274" y="409" width="162" height="142">
<path d="M274.948 409.958H435.917V550.604H274.948V409.958Z" fill="white"/>
</mask>
<g mask="url(#mask31_11_1540)">
<mask id="mask32_11_1540" style="mask-type:luminance" maskUnits="userSpaceOnUse" x="275" y="409" width="161" height="142">
<path d="M355.552 550.604L275.182 409.958H435.917L355.552 550.604Z" fill="white"/>
</mask>
<g mask="url(#mask32_11_1540)">
<mask id="mask33_11_1540" style="mask-type:luminance" maskUnits="userSpaceOnUse" x="274" y="409" width="162" height="142">
<path d="M436 409.333H274.667V550.667H436V409.333Z" fill="white"/>
</mask>
<g mask="url(#mask33_11_1540)">
<mask id="mask34_11_1540" style="mask-type:luminance" maskUnits="userSpaceOnUse" x="274" y="409" width="162" height="142">
<path d="M274.948 409.958H435.917V550.604H274.948V409.958Z" fill="white"/>
</mask>
<g mask="url(#mask34_11_1540)">
<mask id="mask35_11_1540" style="mask-type:luminance" maskUnits="userSpaceOnUse" x="275" y="409" width="161" height="142">
<path d="M355.552 550.604L275.182 409.958H435.917L355.552 550.604Z" fill="white"/>
</mask>
<g mask="url(#mask35_11_1540)">
<path d="M435.917 550.604H274.948V409.958H435.917V550.604Z" fill="#686662"/>
</g>
</g>
</g>
</g>
</g>
<mask id="mask36_11_1540" style="mask-type:luminance" maskUnits="userSpaceOnUse" x="275" y="409" width="161" height="27">
<path d="M275.109 409.969H435.917V435.427H275.109V409.969Z" fill="white"/>
</mask>
<g mask="url(#mask36_11_1540)">
<mask id="mask37_11_1540" style="mask-type:luminance" maskUnits="userSpaceOnUse" x="275" y="409" width="161" height="27">
<path d="M355.552 435.427L275.182 409.969H435.917L355.552 435.427Z" fill="white"/>
</mask>
<g mask="url(#mask37_11_1540)">
<mask id="mask38_11_1540" style="mask-type:luminance" maskUnits="userSpaceOnUse" x="274" y="409" width="162" height="27">
<path d="M436 409.333H274.667V436H436V409.333Z" fill="white"/>
</mask>
<g mask="url(#mask38_11_1540)">
<mask id="mask39_11_1540" style="mask-type:luminance" maskUnits="userSpaceOnUse" x="275" y="409" width="161" height="27">
<path d="M275.109 409.969H435.917V435.427H275.109V409.969Z" fill="white"/>
</mask>
<g mask="url(#mask39_11_1540)">
<mask id="mask40_11_1540" style="mask-type:luminance" maskUnits="userSpaceOnUse" x="275" y="409" width="161" height="27">
<path d="M355.552 435.427L275.182 409.969H435.917L355.552 435.427Z" fill="white"/>
</mask>
<g mask="url(#mask40_11_1540)">
<path d="M435.917 435.427H275.208V409.969H435.917V435.427Z" fill="#585654"/>
</g>
</g>
</g>
</g>
</g>
<mask id="mask41_11_1540" style="mask-type:luminance" maskUnits="userSpaceOnUse" x="266" y="614" width="162" height="141">
<path d="M266.365 614.021H427.333V754.662H266.365V614.021Z" fill="white"/>
</mask>
<g mask="url(#mask41_11_1540)">
<mask id="mask42_11_1540" style="mask-type:luminance" maskUnits="userSpaceOnUse" x="266" y="614" width="162" height="141">
<path d="M346.969 754.662L266.599 614.021H427.333L346.969 754.662Z" fill="white"/>
</mask>
<g mask="url(#mask42_11_1540)">
<mask id="mask43_11_1540" style="mask-type:luminance" maskUnits="userSpaceOnUse" x="265" y="613" width="163" height="142">
<path d="M428 613.333H265.333V754.667H428V613.333Z" fill="white"/>
</mask>
<g mask="url(#mask43_11_1540)">
<mask id="mask44_11_1540" style="mask-type:luminance" maskUnits="userSpaceOnUse" x="266" y="614" width="162" height="141">
<path d="M266.562 614.021H427.333V754.661H266.562V614.021Z" fill="white"/>
</mask>
<g mask="url(#mask44_11_1540)">
<mask id="mask45_11_1540" style="mask-type:luminance" maskUnits="userSpaceOnUse" x="266" y="614" width="162" height="141">
<path d="M346.969 754.661L266.599 614.021H427.333L346.969 754.661Z" fill="white"/>
</mask>
<g mask="url(#mask45_11_1540)">
<path d="M427.333 754.661H266.365V614.021H427.333V754.661Z" fill="#5C9AF7"/>
</g>
</g>
</g>
</g>
</g>
<mask id="mask46_11_1540" style="mask-type:luminance" maskUnits="userSpaceOnUse" x="186" y="614" width="162" height="141">
<path d="M186.24 614.031H347.208V754.672H186.24V614.031Z" fill="white"/>
</mask>
<g mask="url(#mask46_11_1540)">
<mask id="mask47_11_1540" style="mask-type:luminance" maskUnits="userSpaceOnUse" x="186" y="614" width="161" height="141">
<path d="M266.609 614.031L346.974 754.672H186.24L266.609 614.031Z" fill="white"/>
</mask>
<g mask="url(#mask47_11_1540)">
<mask id="mask48_11_1540" style="mask-type:luminance" maskUnits="userSpaceOnUse" x="185" y="613" width="163" height="143">
<path d="M348 613.333H185.333V756H348V613.333Z" fill="white"/>
</mask>
<g mask="url(#mask48_11_1540)">
<mask id="mask49_11_1540" style="mask-type:luminance" maskUnits="userSpaceOnUse" x="186" y="614" width="162" height="141">
<path d="M186.24 614.031H347.198V754.672H186.24V614.031Z" fill="white"/>
</mask>
<g mask="url(#mask49_11_1540)">
<mask id="mask50_11_1540" style="mask-type:luminance" maskUnits="userSpaceOnUse" x="186" y="614" width="161" height="141">
<path d="M266.609 614.031L346.974 754.672H186.24L266.609 614.031Z" fill="white"/>
</mask>
<g mask="url(#mask50_11_1540)">
<path d="M186.24 614.031H347.208V754.672H186.24V614.031Z" fill="#68D1EE"/>
</g>
</g>
</g>
</g>
</g>
<mask id="mask51_11_1540" style="mask-type:luminance" maskUnits="userSpaceOnUse" x="427" y="614" width="162" height="141">
<path d="M427.099 614.021H588.068V754.662H427.099V614.021Z" fill="white"/>
</mask>
<g mask="url(#mask51_11_1540)">
<mask id="mask52_11_1540" style="mask-type:luminance" maskUnits="userSpaceOnUse" x="427" y="614" width="162" height="141">
<path d="M507.703 754.662L427.333 614.021H588.068L507.703 754.662Z" fill="white"/>
</mask>
<g mask="url(#mask52_11_1540)">
<mask id="mask53_11_1540" style="mask-type:luminance" maskUnits="userSpaceOnUse" x="426" y="613" width="164" height="142">
<path d="M589.333 613.333H426.667V754.667H589.333V613.333Z" fill="white"/>
</mask>
<g mask="url(#mask53_11_1540)">
<mask id="mask54_11_1540" style="mask-type:luminance" maskUnits="userSpaceOnUse" x="427" y="614" width="162" height="141">
<path d="M427.198 614.021H588.068V754.661H427.198V614.021Z" fill="white"/>
</mask>
<g mask="url(#mask54_11_1540)">
<mask id="mask55_11_1540" style="mask-type:luminance" maskUnits="userSpaceOnUse" x="427" y="614" width="162" height="141">
<path d="M507.703 754.661L427.333 614.021H588.068L507.703 754.661Z" fill="white"/>
</mask>
<g mask="url(#mask55_11_1540)">
<path d="M588.068 754.661H427.099V614.021H588.068V754.661Z" fill="#C90E69"/>
</g>
</g>
</g>
</g>
</g>
<mask id="mask56_11_1540" style="mask-type:luminance" maskUnits="userSpaceOnUse" x="346" y="614" width="162" height="141">
<path d="M346.974 614.031H507.943V754.672H346.974V614.031Z" fill="white"/>
</mask>
<g mask="url(#mask56_11_1540)">
<mask id="mask57_11_1540" style="mask-type:luminance" maskUnits="userSpaceOnUse" x="346" y="614" width="162" height="141">
<path d="M427.344 614.031L507.708 754.672H346.974L427.344 614.031Z" fill="white"/>
</mask>
<g mask="url(#mask57_11_1540)">
<mask id="mask58_11_1540" style="mask-type:luminance" maskUnits="userSpaceOnUse" x="346" y="613" width="162" height="143">
<path d="M508 613.333H346.667V756H508V613.333Z" fill="white"/>
</mask>
<g mask="url(#mask58_11_1540)">
<mask id="mask59_11_1540" style="mask-type:luminance" maskUnits="userSpaceOnUse" x="346" y="614" width="162" height="141">
<path d="M346.974 614.031H507.838V754.672H346.974V614.031Z" fill="white"/>
</mask>
<g mask="url(#mask59_11_1540)">
<mask id="mask60_11_1540" style="mask-type:luminance" maskUnits="userSpaceOnUse" x="346" y="614" width="162" height="141">
<path d="M427.344 614.031L507.708 754.672H346.974L427.344 614.031Z" fill="white"/>
</mask>
<g mask="url(#mask60_11_1540)">
<path d="M346.974 614.031H507.943V754.672H346.974V614.031Z" fill="#F44F2B"/>
</g>
</g>
</g>
</g>
</g>
<mask id="mask61_11_1540" style="mask-type:luminance" maskUnits="userSpaceOnUse" x="507" y="614" width="162" height="141">
<path d="M507.708 614.031H668.677V754.672H507.708V614.031Z" fill="white"/>
</mask>
<g mask="url(#mask61_11_1540)">
<mask id="mask62_11_1540" style="mask-type:luminance" maskUnits="userSpaceOnUse" x="507" y="614" width="162" height="141">
<path d="M588.078 614.031L668.443 754.672H507.708L588.078 614.031Z" fill="white"/>
</mask>
<g mask="url(#mask62_11_1540)">
<mask id="mask63_11_1540" style="mask-type:luminance" maskUnits="userSpaceOnUse" x="506" y="613" width="164" height="143">
<path d="M669.333 613.333H506.667V756H669.333V613.333Z" fill="white"/>
</mask>
<g mask="url(#mask63_11_1540)">
<mask id="mask64_11_1540" style="mask-type:luminance" maskUnits="userSpaceOnUse" x="507" y="614" width="162" height="141">
<path d="M507.708 614.031H668.479V754.672H507.708V614.031Z" fill="white"/>
</mask>
<g mask="url(#mask64_11_1540)">
<mask id="mask65_11_1540" style="mask-type:luminance" maskUnits="userSpaceOnUse" x="507" y="614" width="162" height="141">
<path d="M588.078 614.031L668.443 754.672H507.708L588.078 614.031Z" fill="white"/>
</mask>
<g mask="url(#mask65_11_1540)">
<path d="M507.708 614.031H668.677V754.672H507.708V614.031Z" fill="#FFAB33"/>
</g>
</g>
</g>
</g>
</g>
<mask id="mask66_11_1540" style="mask-type:luminance" maskUnits="userSpaceOnUse" x="588" y="614" width="161" height="141">
<path d="M588 614.021H748.802V754.662H588V614.021Z" fill="white"/>
</mask>
<g mask="url(#mask66_11_1540)">
<mask id="mask67_11_1540" style="mask-type:luminance" maskUnits="userSpaceOnUse" x="588" y="614" width="161" height="141">
<path d="M668.437 754.662L588.068 614.021H748.802L668.437 754.662Z" fill="white"/>
</mask>
<g mask="url(#mask67_11_1540)">
<mask id="mask68_11_1540" style="mask-type:luminance" maskUnits="userSpaceOnUse" x="588" y="613" width="162" height="142">
<path d="M749.333 613.333H588V754.667H749.333V613.333Z" fill="white"/>
</mask>
<g mask="url(#mask68_11_1540)">
<mask id="mask69_11_1540" style="mask-type:luminance" maskUnits="userSpaceOnUse" x="588" y="614" width="161" height="141">
<path d="M588 614.021H748.802V754.661H588V614.021Z" fill="white"/>
</mask>
<g mask="url(#mask69_11_1540)">
<mask id="mask70_11_1540" style="mask-type:luminance" maskUnits="userSpaceOnUse" x="588" y="614" width="161" height="141">
<path d="M668.437 754.661L588.068 614.021H748.802L668.437 754.661Z" fill="white"/>
</mask>
<g mask="url(#mask70_11_1540)">
<path d="M748.802 754.661H587.833V614.021H748.802V754.661Z" fill="#FFC539"/>
</g>
</g>
</g>
</g>
</g>
<mask id="mask71_11_1540" style="mask-type:luminance" maskUnits="userSpaceOnUse" x="588" y="473" width="162" height="142">
<path d="M588.078 473.385H749.047V614.031H588.078V473.385Z" fill="white"/>
</mask>
<g mask="url(#mask71_11_1540)">
<mask id="mask72_11_1540" style="mask-type:luminance" maskUnits="userSpaceOnUse" x="588" y="473" width="161" height="142">
<path d="M668.443 473.385L748.807 614.031H588.078L668.443 473.385Z" fill="white"/>
</mask>
<g mask="url(#mask72_11_1540)">
<mask id="mask73_11_1540" style="mask-type:luminance" maskUnits="userSpaceOnUse" x="588" y="473" width="162" height="142">
<path d="M749.333 473.333H588V614.667H749.333V473.333Z" fill="white"/>
</mask>
<g mask="url(#mask73_11_1540)">
<mask id="mask74_11_1540" style="mask-type:luminance" maskUnits="userSpaceOnUse" x="588" y="473" width="162" height="142">
<path d="M588.078 473.385H749.047V614.031H588.078V473.385Z" fill="white"/>
</mask>
<g mask="url(#mask74_11_1540)">
<mask id="mask75_11_1540" style="mask-type:luminance" maskUnits="userSpaceOnUse" x="588" y="473" width="161" height="142">
<path d="M668.443 473.385L748.807 614.031H588.078L668.443 473.385Z" fill="white"/>
</mask>
<g mask="url(#mask75_11_1540)">
<path d="M588.078 473.385H749.047V614.031H588.078V473.385Z" fill="#686662"/>
</g>
</g>
</g>
</g>
</g>
<mask id="mask76_11_1540" style="mask-type:luminance" maskUnits="userSpaceOnUse" x="588" y="588" width="161" height="27">
<path d="M588.078 588.573H748.885V614.031H588.078V588.573Z" fill="white"/>
</mask>
<g mask="url(#mask76_11_1540)">
<mask id="mask77_11_1540" style="mask-type:luminance" maskUnits="userSpaceOnUse" x="588" y="588" width="161" height="27">
<path d="M668.443 588.573L748.807 614.031H588.078L668.443 588.573Z" fill="white"/>
</mask>
<g mask="url(#mask77_11_1540)">
<mask id="mask78_11_1540" style="mask-type:luminance" maskUnits="userSpaceOnUse" x="588" y="588" width="162" height="27">
<path d="M749.333 588H588V614.667H749.333V588Z" fill="white"/>
</mask>
<g mask="url(#mask78_11_1540)">
<mask id="mask79_11_1540" style="mask-type:luminance" maskUnits="userSpaceOnUse" x="588" y="588" width="161" height="27">
<path d="M588.078 588.573H748.885V614.031H588.078V588.573Z" fill="white"/>
</mask>
<g mask="url(#mask79_11_1540)">
<mask id="mask80_11_1540" style="mask-type:luminance" maskUnits="userSpaceOnUse" x="588" y="588" width="161" height="27">
<path d="M668.443 588.573L748.807 614.031H588.078L668.443 588.573Z" fill="white"/>
</mask>
<g mask="url(#mask80_11_1540)">
<path d="M588.078 588.573H748.786V614.031H588.078V588.573Z" fill="#585654"/>
</g>
</g>
</g>
</g>
</g>
</g>
</svg>
