<svg width="654" height="488" viewBox="0 0 654 488" fill="none" xmlns="http://www.w3.org/2000/svg">
<mask id="mask0_11_1543" style="mask-type:luminance" maskUnits="userSpaceOnUse" x="0" y="0" width="654" height="488">
<path d="M653.667 0H0.333252V488H653.667V0Z" fill="white"/>
</mask>
<g mask="url(#mask0_11_1543)">
<mask id="mask1_11_1543" style="mask-type:luminance" maskUnits="userSpaceOnUse" x="411" y="1" width="162" height="141">
<path d="M411.656 1.32812H572.625V141.969H411.656V1.32812Z" fill="white"/>
</mask>
<g mask="url(#mask1_11_1543)">
<mask id="mask2_11_1543" style="mask-type:luminance" maskUnits="userSpaceOnUse" x="411" y="1" width="162" height="141">
<path d="M492.026 1.32812L572.391 141.969H411.656L492.026 1.32812Z" fill="white"/>
</mask>
<g mask="url(#mask2_11_1543)">
<mask id="mask3_11_1543" style="mask-type:luminance" maskUnits="userSpaceOnUse" x="411" y="0" width="163" height="143">
<path d="M573.667 0H411V142.667H573.667V0Z" fill="white"/>
</mask>
<g mask="url(#mask3_11_1543)">
<mask id="mask4_11_1543" style="mask-type:luminance" maskUnits="userSpaceOnUse" x="411" y="1" width="162" height="141">
<path d="M411.656 1.32812H572.438V141.969H411.656V1.32812Z" fill="white"/>
</mask>
<g mask="url(#mask4_11_1543)">
<mask id="mask5_11_1543" style="mask-type:luminance" maskUnits="userSpaceOnUse" x="411" y="1" width="162" height="141">
<path d="M492.026 1.32812L572.391 141.969H411.656L492.026 1.32812Z" fill="white"/>
</mask>
<g mask="url(#mask5_11_1543)">
<path d="M411.656 1.32812H572.625V141.969H411.656V1.32812Z" fill="#5C9AF7"/>
</g>
</g>
</g>
</g>
</g>
<mask id="mask6_11_1543" style="mask-type:luminance" maskUnits="userSpaceOnUse" x="491" y="1" width="162" height="141">
<path d="M491.781 1.31775H652.75V141.958H491.781V1.31775Z" fill="white"/>
</mask>
<g mask="url(#mask6_11_1543)">
<mask id="mask7_11_1543" style="mask-type:luminance" maskUnits="userSpaceOnUse" x="492" y="1" width="161" height="141">
<path d="M572.385 141.958L492.021 1.31775H652.75L572.385 141.958Z" fill="white"/>
</mask>
<g mask="url(#mask7_11_1543)">
<mask id="mask8_11_1543" style="mask-type:luminance" maskUnits="userSpaceOnUse" x="491" y="0" width="163" height="143">
<path d="M653.667 0H491V142.667H653.667V0Z" fill="white"/>
</mask>
<g mask="url(#mask8_11_1543)">
<mask id="mask9_11_1543" style="mask-type:luminance" maskUnits="userSpaceOnUse" x="491" y="1" width="162" height="141">
<path d="M491.802 1.31775H652.75V141.958H491.802V1.31775Z" fill="white"/>
</mask>
<g mask="url(#mask9_11_1543)">
<mask id="mask10_11_1543" style="mask-type:luminance" maskUnits="userSpaceOnUse" x="492" y="1" width="161" height="141">
<path d="M572.385 141.958L492.021 1.31775H652.75L572.385 141.958Z" fill="white"/>
</mask>
<g mask="url(#mask10_11_1543)">
<path d="M652.75 141.958H491.781V1.31775H652.75V141.958Z" fill="#68D1EE"/>
</g>
</g>
</g>
</g>
</g>
<mask id="mask11_11_1543" style="mask-type:luminance" maskUnits="userSpaceOnUse" x="250" y="1" width="162" height="141">
<path d="M250.922 1.32812H411.896V141.969H250.922V1.32812Z" fill="white"/>
</mask>
<g mask="url(#mask11_11_1543)">
<mask id="mask12_11_1543" style="mask-type:luminance" maskUnits="userSpaceOnUse" x="250" y="1" width="162" height="141">
<path d="M331.292 1.32812L411.656 141.969H250.922L331.292 1.32812Z" fill="white"/>
</mask>
<g mask="url(#mask12_11_1543)">
<mask id="mask13_11_1543" style="mask-type:luminance" maskUnits="userSpaceOnUse" x="249" y="0" width="164" height="143">
<path d="M412.333 0H249.667V142.667H412.333V0Z" fill="white"/>
</mask>
<g mask="url(#mask13_11_1543)">
<mask id="mask14_11_1543" style="mask-type:luminance" maskUnits="userSpaceOnUse" x="250" y="1" width="162" height="141">
<path d="M250.922 1.32812H411.802V141.969H250.922V1.32812Z" fill="white"/>
</mask>
<g mask="url(#mask14_11_1543)">
<mask id="mask15_11_1543" style="mask-type:luminance" maskUnits="userSpaceOnUse" x="250" y="1" width="162" height="141">
<path d="M331.292 1.32812L411.656 141.969H250.922L331.292 1.32812Z" fill="white"/>
</mask>
<g mask="url(#mask15_11_1543)">
<path d="M250.922 1.32812H411.896V141.969H250.922V1.32812Z" fill="#C90E69"/>
</g>
</g>
</g>
</g>
</g>
<mask id="mask16_11_1543" style="mask-type:luminance" maskUnits="userSpaceOnUse" x="331" y="1" width="162" height="141">
<path d="M331.047 1.31775H492.021V141.958H331.047V1.31775Z" fill="white"/>
</mask>
<g mask="url(#mask16_11_1543)">
<mask id="mask17_11_1543" style="mask-type:luminance" maskUnits="userSpaceOnUse" x="331" y="1" width="162" height="141">
<path d="M411.651 141.958L331.286 1.31775H492.021L411.651 141.958Z" fill="white"/>
</mask>
<g mask="url(#mask17_11_1543)">
<mask id="mask18_11_1543" style="mask-type:luminance" maskUnits="userSpaceOnUse" x="331" y="0" width="162" height="143">
<path d="M492.333 0H331V142.667H492.333V0Z" fill="white"/>
</mask>
<g mask="url(#mask18_11_1543)">
<mask id="mask19_11_1543" style="mask-type:luminance" maskUnits="userSpaceOnUse" x="331" y="1" width="162" height="141">
<path d="M331.161 1.31775H492.021V141.958H331.161V1.31775Z" fill="white"/>
</mask>
<g mask="url(#mask19_11_1543)">
<mask id="mask20_11_1543" style="mask-type:luminance" maskUnits="userSpaceOnUse" x="331" y="1" width="162" height="141">
<path d="M411.651 141.958L331.286 1.31775H492.021L411.651 141.958Z" fill="white"/>
</mask>
<g mask="url(#mask20_11_1543)">
<path d="M492.021 141.958H331.047V1.31775H492.021V141.958Z" fill="#F44F2B"/>
</g>
</g>
</g>
</g>
</g>
<mask id="mask21_11_1543" style="mask-type:luminance" maskUnits="userSpaceOnUse" x="170" y="1" width="162" height="141">
<path d="M170.318 1.31775H331.286V141.958H170.318V1.31775Z" fill="white"/>
</mask>
<g mask="url(#mask21_11_1543)">
<mask id="mask22_11_1543" style="mask-type:luminance" maskUnits="userSpaceOnUse" x="170" y="1" width="162" height="141">
<path d="M250.917 141.958L170.552 1.31775H331.286L250.917 141.958Z" fill="white"/>
</mask>
<g mask="url(#mask22_11_1543)">
<mask id="mask23_11_1543" style="mask-type:luminance" maskUnits="userSpaceOnUse" x="169" y="0" width="164" height="143">
<path d="M332.333 0H169.667V142.667H332.333V0Z" fill="white"/>
</mask>
<g mask="url(#mask23_11_1543)">
<mask id="mask24_11_1543" style="mask-type:luminance" maskUnits="userSpaceOnUse" x="170" y="1" width="162" height="141">
<path d="M170.521 1.31775H331.286V141.958H170.521V1.31775Z" fill="white"/>
</mask>
<g mask="url(#mask24_11_1543)">
<mask id="mask25_11_1543" style="mask-type:luminance" maskUnits="userSpaceOnUse" x="170" y="1" width="162" height="141">
<path d="M250.917 141.958L170.552 1.31775H331.286L250.917 141.958Z" fill="white"/>
</mask>
<g mask="url(#mask25_11_1543)">
<path d="M331.286 141.958H170.318V1.31775H331.286V141.958Z" fill="#FFAB33"/>
</g>
</g>
</g>
</g>
</g>
<mask id="mask26_11_1543" style="mask-type:luminance" maskUnits="userSpaceOnUse" x="90" y="1" width="161" height="141">
<path d="M90.1926 1.32812H251V141.969H90.1926V1.32812Z" fill="white"/>
</mask>
<g mask="url(#mask26_11_1543)">
<mask id="mask27_11_1543" style="mask-type:luminance" maskUnits="userSpaceOnUse" x="90" y="1" width="161" height="141">
<path d="M170.557 1.32812L250.922 141.969H90.1926L170.557 1.32812Z" fill="white"/>
</mask>
<g mask="url(#mask27_11_1543)">
<mask id="mask28_11_1543" style="mask-type:luminance" maskUnits="userSpaceOnUse" x="89" y="0" width="162" height="143">
<path d="M251 0H89.6665V142.667H251V0Z" fill="white"/>
</mask>
<g mask="url(#mask28_11_1543)">
<mask id="mask29_11_1543" style="mask-type:luminance" maskUnits="userSpaceOnUse" x="90" y="1" width="161" height="141">
<path d="M90.1926 1.32812H251V141.969H90.1926V1.32812Z" fill="white"/>
</mask>
<g mask="url(#mask29_11_1543)">
<mask id="mask30_11_1543" style="mask-type:luminance" maskUnits="userSpaceOnUse" x="90" y="1" width="161" height="141">
<path d="M170.557 1.32812L250.922 141.969H90.1926L170.557 1.32812Z" fill="white"/>
</mask>
<g mask="url(#mask30_11_1543)">
<path d="M90.1926 1.32812H251.161V141.969H90.1926V1.32812Z" fill="#FFC539"/>
</g>
</g>
</g>
</g>
</g>
<mask id="mask31_11_1543" style="mask-type:luminance" maskUnits="userSpaceOnUse" x="89" y="141" width="162" height="142">
<path d="M89.9478 141.958H250.917V282.604H89.9478V141.958Z" fill="white"/>
</mask>
<g mask="url(#mask31_11_1543)">
<mask id="mask32_11_1543" style="mask-type:luminance" maskUnits="userSpaceOnUse" x="90" y="141" width="161" height="142">
<path d="M170.552 282.604L90.1821 141.958H250.917L170.552 282.604Z" fill="white"/>
</mask>
<g mask="url(#mask32_11_1543)">
<mask id="mask33_11_1543" style="mask-type:luminance" maskUnits="userSpaceOnUse" x="89" y="141" width="162" height="142">
<path d="M251 141.333H89.6665V282.667H251V141.333Z" fill="white"/>
</mask>
<g mask="url(#mask33_11_1543)">
<mask id="mask34_11_1543" style="mask-type:luminance" maskUnits="userSpaceOnUse" x="89" y="141" width="162" height="142">
<path d="M89.9478 141.958H250.917V282.604H89.9478V141.958Z" fill="white"/>
</mask>
<g mask="url(#mask34_11_1543)">
<mask id="mask35_11_1543" style="mask-type:luminance" maskUnits="userSpaceOnUse" x="90" y="141" width="161" height="142">
<path d="M170.552 282.604L90.1821 141.958H250.917L170.552 282.604Z" fill="white"/>
</mask>
<g mask="url(#mask35_11_1543)">
<path d="M250.917 282.604H89.9478V141.958H250.917V282.604Z" fill="#686662"/>
</g>
</g>
</g>
</g>
</g>
<mask id="mask36_11_1543" style="mask-type:luminance" maskUnits="userSpaceOnUse" x="90" y="141" width="161" height="27">
<path d="M90.1094 141.969H250.917V167.427H90.1094V141.969Z" fill="white"/>
</mask>
<g mask="url(#mask36_11_1543)">
<mask id="mask37_11_1543" style="mask-type:luminance" maskUnits="userSpaceOnUse" x="90" y="141" width="161" height="27">
<path d="M170.552 167.427L90.1824 141.969H250.917L170.552 167.427Z" fill="white"/>
</mask>
<g mask="url(#mask37_11_1543)">
<mask id="mask38_11_1543" style="mask-type:luminance" maskUnits="userSpaceOnUse" x="89" y="141" width="162" height="27">
<path d="M251 141.333H89.6667V168H251V141.333Z" fill="white"/>
</mask>
<g mask="url(#mask38_11_1543)">
<mask id="mask39_11_1543" style="mask-type:luminance" maskUnits="userSpaceOnUse" x="90" y="141" width="161" height="27">
<path d="M90.1094 141.969H250.917V167.427H90.1094V141.969Z" fill="white"/>
</mask>
<g mask="url(#mask39_11_1543)">
<mask id="mask40_11_1543" style="mask-type:luminance" maskUnits="userSpaceOnUse" x="90" y="141" width="161" height="27">
<path d="M170.552 167.427L90.1824 141.969H250.917L170.552 167.427Z" fill="white"/>
</mask>
<g mask="url(#mask40_11_1543)">
<path d="M250.917 167.427H90.2085V141.969H250.917V167.427Z" fill="#585654"/>
</g>
</g>
</g>
</g>
</g>
<mask id="mask41_11_1543" style="mask-type:luminance" maskUnits="userSpaceOnUse" x="81" y="346" width="162" height="141">
<path d="M81.3645 346.021H242.333V486.661H81.3645V346.021Z" fill="white"/>
</mask>
<g mask="url(#mask41_11_1543)">
<mask id="mask42_11_1543" style="mask-type:luminance" maskUnits="userSpaceOnUse" x="81" y="346" width="162" height="141">
<path d="M161.969 486.661L81.5989 346.021H242.333L161.969 486.661Z" fill="white"/>
</mask>
<g mask="url(#mask42_11_1543)">
<mask id="mask43_11_1543" style="mask-type:luminance" maskUnits="userSpaceOnUse" x="80" y="345" width="163" height="142">
<path d="M243 345.333H80.3333V486.667H243V345.333Z" fill="white"/>
</mask>
<g mask="url(#mask43_11_1543)">
<mask id="mask44_11_1543" style="mask-type:luminance" maskUnits="userSpaceOnUse" x="81" y="346" width="162" height="141">
<path d="M81.5625 346.021H242.333V486.661H81.5625V346.021Z" fill="white"/>
</mask>
<g mask="url(#mask44_11_1543)">
<mask id="mask45_11_1543" style="mask-type:luminance" maskUnits="userSpaceOnUse" x="81" y="346" width="162" height="141">
<path d="M161.969 486.661L81.5989 346.021H242.333L161.969 486.661Z" fill="white"/>
</mask>
<g mask="url(#mask45_11_1543)">
<path d="M242.333 486.661H81.3645V346.021H242.333V486.661Z" fill="#5C9AF7"/>
</g>
</g>
</g>
</g>
</g>
<mask id="mask46_11_1543" style="mask-type:luminance" maskUnits="userSpaceOnUse" x="1" y="346" width="162" height="141">
<path d="M1.2395 346.031H162.208V486.672H1.2395V346.031Z" fill="white"/>
</mask>
<g mask="url(#mask46_11_1543)">
<mask id="mask47_11_1543" style="mask-type:luminance" maskUnits="userSpaceOnUse" x="1" y="346" width="161" height="141">
<path d="M81.6093 346.031L161.974 486.672H1.2395L81.6093 346.031Z" fill="white"/>
</mask>
<g mask="url(#mask47_11_1543)">
<mask id="mask48_11_1543" style="mask-type:luminance" maskUnits="userSpaceOnUse" x="0" y="345" width="163" height="143">
<path d="M163 345.333H0.333252V488H163V345.333Z" fill="white"/>
</mask>
<g mask="url(#mask48_11_1543)">
<mask id="mask49_11_1543" style="mask-type:luminance" maskUnits="userSpaceOnUse" x="1" y="346" width="162" height="141">
<path d="M1.2395 346.031H162.198V486.672H1.2395V346.031Z" fill="white"/>
</mask>
<g mask="url(#mask49_11_1543)">
<mask id="mask50_11_1543" style="mask-type:luminance" maskUnits="userSpaceOnUse" x="1" y="346" width="161" height="141">
<path d="M81.6093 346.031L161.974 486.672H1.2395L81.6093 346.031Z" fill="white"/>
</mask>
<g mask="url(#mask50_11_1543)">
<path d="M1.2395 346.031H162.208V486.672H1.2395V346.031Z" fill="#68D1EE"/>
</g>
</g>
</g>
</g>
</g>
<mask id="mask51_11_1543" style="mask-type:luminance" maskUnits="userSpaceOnUse" x="242" y="346" width="162" height="141">
<path d="M242.099 346.021H403.068V486.661H242.099V346.021Z" fill="white"/>
</mask>
<g mask="url(#mask51_11_1543)">
<mask id="mask52_11_1543" style="mask-type:luminance" maskUnits="userSpaceOnUse" x="242" y="346" width="162" height="141">
<path d="M322.703 486.661L242.333 346.021H403.068L322.703 486.661Z" fill="white"/>
</mask>
<g mask="url(#mask52_11_1543)">
<mask id="mask53_11_1543" style="mask-type:luminance" maskUnits="userSpaceOnUse" x="241" y="345" width="164" height="142">
<path d="M404.333 345.333H241.667V486.667H404.333V345.333Z" fill="white"/>
</mask>
<g mask="url(#mask53_11_1543)">
<mask id="mask54_11_1543" style="mask-type:luminance" maskUnits="userSpaceOnUse" x="242" y="346" width="162" height="141">
<path d="M242.198 346.021H403.068V486.661H242.198V346.021Z" fill="white"/>
</mask>
<g mask="url(#mask54_11_1543)">
<mask id="mask55_11_1543" style="mask-type:luminance" maskUnits="userSpaceOnUse" x="242" y="346" width="162" height="141">
<path d="M322.703 486.661L242.333 346.021H403.068L322.703 486.661Z" fill="white"/>
</mask>
<g mask="url(#mask55_11_1543)">
<path d="M403.068 486.661H242.099V346.021H403.068V486.661Z" fill="#C90E69"/>
</g>
</g>
</g>
</g>
</g>
<mask id="mask56_11_1543" style="mask-type:luminance" maskUnits="userSpaceOnUse" x="161" y="346" width="162" height="141">
<path d="M161.974 346.031H322.943V486.672H161.974V346.031Z" fill="white"/>
</mask>
<g mask="url(#mask56_11_1543)">
<mask id="mask57_11_1543" style="mask-type:luminance" maskUnits="userSpaceOnUse" x="161" y="346" width="162" height="141">
<path d="M242.344 346.031L322.708 486.672H161.974L242.344 346.031Z" fill="white"/>
</mask>
<g mask="url(#mask57_11_1543)">
<mask id="mask58_11_1543" style="mask-type:luminance" maskUnits="userSpaceOnUse" x="161" y="345" width="162" height="143">
<path d="M323 345.333H161.667V488H323V345.333Z" fill="white"/>
</mask>
<g mask="url(#mask58_11_1543)">
<mask id="mask59_11_1543" style="mask-type:luminance" maskUnits="userSpaceOnUse" x="161" y="346" width="162" height="141">
<path d="M161.974 346.031H322.838V486.672H161.974V346.031Z" fill="white"/>
</mask>
<g mask="url(#mask59_11_1543)">
<mask id="mask60_11_1543" style="mask-type:luminance" maskUnits="userSpaceOnUse" x="161" y="346" width="162" height="141">
<path d="M242.344 346.031L322.708 486.672H161.974L242.344 346.031Z" fill="white"/>
</mask>
<g mask="url(#mask60_11_1543)">
<path d="M161.974 346.031H322.943V486.672H161.974V346.031Z" fill="#F44F2B"/>
</g>
</g>
</g>
</g>
</g>
<mask id="mask61_11_1543" style="mask-type:luminance" maskUnits="userSpaceOnUse" x="322" y="346" width="162" height="141">
<path d="M322.708 346.031H483.677V486.672H322.708V346.031Z" fill="white"/>
</mask>
<g mask="url(#mask61_11_1543)">
<mask id="mask62_11_1543" style="mask-type:luminance" maskUnits="userSpaceOnUse" x="322" y="346" width="162" height="141">
<path d="M403.078 346.031L483.443 486.672H322.708L403.078 346.031Z" fill="white"/>
</mask>
<g mask="url(#mask62_11_1543)">
<mask id="mask63_11_1543" style="mask-type:luminance" maskUnits="userSpaceOnUse" x="321" y="345" width="164" height="143">
<path d="M484.333 345.333H321.667V488H484.333V345.333Z" fill="white"/>
</mask>
<g mask="url(#mask63_11_1543)">
<mask id="mask64_11_1543" style="mask-type:luminance" maskUnits="userSpaceOnUse" x="322" y="346" width="162" height="141">
<path d="M322.708 346.031H483.479V486.672H322.708V346.031Z" fill="white"/>
</mask>
<g mask="url(#mask64_11_1543)">
<mask id="mask65_11_1543" style="mask-type:luminance" maskUnits="userSpaceOnUse" x="322" y="346" width="162" height="141">
<path d="M403.078 346.031L483.443 486.672H322.708L403.078 346.031Z" fill="white"/>
</mask>
<g mask="url(#mask65_11_1543)">
<path d="M322.708 346.031H483.677V486.672H322.708V346.031Z" fill="#FFAB33"/>
</g>
</g>
</g>
</g>
</g>
<mask id="mask66_11_1543" style="mask-type:luminance" maskUnits="userSpaceOnUse" x="403" y="346" width="161" height="141">
<path d="M403 346.021H563.802V486.661H403V346.021Z" fill="white"/>
</mask>
<g mask="url(#mask66_11_1543)">
<mask id="mask67_11_1543" style="mask-type:luminance" maskUnits="userSpaceOnUse" x="403" y="346" width="161" height="141">
<path d="M483.437 486.661L403.068 346.021H563.802L483.437 486.661Z" fill="white"/>
</mask>
<g mask="url(#mask67_11_1543)">
<mask id="mask68_11_1543" style="mask-type:luminance" maskUnits="userSpaceOnUse" x="403" y="345" width="162" height="142">
<path d="M564.333 345.333H403V486.667H564.333V345.333Z" fill="white"/>
</mask>
<g mask="url(#mask68_11_1543)">
<mask id="mask69_11_1543" style="mask-type:luminance" maskUnits="userSpaceOnUse" x="403" y="346" width="161" height="141">
<path d="M403 346.021H563.802V486.661H403V346.021Z" fill="white"/>
</mask>
<g mask="url(#mask69_11_1543)">
<mask id="mask70_11_1543" style="mask-type:luminance" maskUnits="userSpaceOnUse" x="403" y="346" width="161" height="141">
<path d="M483.437 486.661L403.068 346.021H563.802L483.437 486.661Z" fill="white"/>
</mask>
<g mask="url(#mask70_11_1543)">
<path d="M563.802 486.661H402.833V346.021H563.802V486.661Z" fill="#FFC539"/>
</g>
</g>
</g>
</g>
</g>
<mask id="mask71_11_1543" style="mask-type:luminance" maskUnits="userSpaceOnUse" x="403" y="205" width="162" height="142">
<path d="M403.078 205.385H564.047V346.031H403.078V205.385Z" fill="white"/>
</mask>
<g mask="url(#mask71_11_1543)">
<mask id="mask72_11_1543" style="mask-type:luminance" maskUnits="userSpaceOnUse" x="403" y="205" width="161" height="142">
<path d="M483.443 205.385L563.807 346.031H403.078L483.443 205.385Z" fill="white"/>
</mask>
<g mask="url(#mask72_11_1543)">
<mask id="mask73_11_1543" style="mask-type:luminance" maskUnits="userSpaceOnUse" x="403" y="205" width="162" height="142">
<path d="M564.333 205.333H403V346.667H564.333V205.333Z" fill="white"/>
</mask>
<g mask="url(#mask73_11_1543)">
<mask id="mask74_11_1543" style="mask-type:luminance" maskUnits="userSpaceOnUse" x="403" y="205" width="162" height="142">
<path d="M403.078 205.385H564.047V346.031H403.078V205.385Z" fill="white"/>
</mask>
<g mask="url(#mask74_11_1543)">
<mask id="mask75_11_1543" style="mask-type:luminance" maskUnits="userSpaceOnUse" x="403" y="205" width="161" height="142">
<path d="M483.443 205.385L563.807 346.031H403.078L483.443 205.385Z" fill="white"/>
</mask>
<g mask="url(#mask75_11_1543)">
<path d="M403.078 205.385H564.047V346.031H403.078V205.385Z" fill="#686662"/>
</g>
</g>
</g>
</g>
</g>
<mask id="mask76_11_1543" style="mask-type:luminance" maskUnits="userSpaceOnUse" x="403" y="320" width="161" height="27">
<path d="M403.078 320.573H563.885V346.031H403.078V320.573Z" fill="white"/>
</mask>
<g mask="url(#mask76_11_1543)">
<mask id="mask77_11_1543" style="mask-type:luminance" maskUnits="userSpaceOnUse" x="403" y="320" width="161" height="27">
<path d="M483.443 320.573L563.807 346.031H403.078L483.443 320.573Z" fill="white"/>
</mask>
<g mask="url(#mask77_11_1543)">
<mask id="mask78_11_1543" style="mask-type:luminance" maskUnits="userSpaceOnUse" x="403" y="320" width="162" height="27">
<path d="M564.333 320H403V346.667H564.333V320Z" fill="white"/>
</mask>
<g mask="url(#mask78_11_1543)">
<mask id="mask79_11_1543" style="mask-type:luminance" maskUnits="userSpaceOnUse" x="403" y="320" width="161" height="27">
<path d="M403.078 320.573H563.885V346.031H403.078V320.573Z" fill="white"/>
</mask>
<g mask="url(#mask79_11_1543)">
<mask id="mask80_11_1543" style="mask-type:luminance" maskUnits="userSpaceOnUse" x="403" y="320" width="161" height="27">
<path d="M483.443 320.573L563.807 346.031H403.078L483.443 320.573Z" fill="white"/>
</mask>
<g mask="url(#mask80_11_1543)">
<path d="M403.078 320.573H563.786V346.031H403.078V320.573Z" fill="#585654"/>
</g>
</g>
</g>
</g>
</g>
</g>
</svg>
