<svg clip-rule="evenodd" fill-rule="evenodd" height="512" stroke-linejoin="round" stroke-miterlimit="2" viewBox="0 0 24 24" width="512" xmlns="http://www.w3.org/2000/svg"><g id="Icon"><path d="m16.379 8.49-2.181 6.546c-.131.392.081.817.474.948s.818-.081.949-.474l2.181-6.546c.131-.392-.081-.817-.474-.948s-.818.081-.949.474z"/><path d="m18.288 10.349 1.651 1.651s-1.651 1.651-1.651 1.651c-.293.293-.293.768 0 1.061s.768.293 1.061 0l2.181-2.182c.293-.293.293-.767 0-1.06l-2.181-2.182c-.293-.293-.768-.293-1.061 0s-.293.768 0 1.061z"/><path d="m12.651 9.288-2.181 2.182c-.293.293-.293.767 0 1.06l2.181 2.182c.293.293.768.293 1.061 0s.293-.768 0-1.061l-1.651-1.651s1.651-1.651 1.651-1.651c.293-.293.293-.768 0-1.061s-.768-.293-1.061 0z"/><path d="m16.75 15.284-.181.542c-.305.916-1.297 1.412-2.213 1.107-.506-.169-.884-.546-1.069-1.005-.482.029-.974-.141-1.343-.509 0 0-2.181-2.182-2.181-2.182-.684-.683-.684-1.791 0-2.474l2.181-2.182c.683-.683 1.792-.683 2.475 0 .308.308.477.702.508 1.105l.504-1.512c.206-.618.723-1.044 1.319-1.163v-3.011c0-.729-.29-1.429-.805-1.945-.516-.515-1.216-.805-1.945-.805-2.444 0-6.556 0-9 0-.729 0-1.429.29-1.945.805-.515.516-.805 1.216-.805 1.945v16c0 .729.29 1.429.805 1.945.516.515 1.216.805 1.945.805h9c.729 0 1.429-.29 1.945-.805.515-.516.805-1.216.805-1.945zm-9.25 4.966h4c.414 0 .75-.336.75-.75s-.336-.75-.75-.75h-4c-.414 0-.75.336-.75.75s.336.75.75.75zm6-17.5h-8l.623 1.557c.228.57.779.943 1.393.943h3.968c.614 0 1.165-.373 1.393-.943z"/></g></svg>