<svg width="77" height="77" viewBox="0 0 77 77" fill="none" xmlns="http://www.w3.org/2000/svg">
<rect width="77" height="77" fill="url(#paint0_linear_1_1681)"/>
<path d="M55.2749 53.1557C57.9177 53.1557 60.0679 51.0129 60.0679 48.3702V19.9917C60.0679 17.5129 58.0535 15.4988 55.575 15.4988H20.425C17.9463 15.4988 15.9321 17.5129 15.9321 19.9917V48.3702C15.9321 51.0129 18.082 53.1557 20.725 53.1557H31.6867V55.9034H30.3996C29.2238 55.9034 28.2661 56.8527 28.2661 58.0284V59.6303C28.2661 60.1096 28.658 60.5012 29.137 60.5012H46.8661C47.3452 60.5012 47.737 60.1096 47.737 59.6303V58.0284C47.737 56.8527 46.7793 55.9034 45.6036 55.9034H44.3131V53.1557H55.2749ZM38.0035 50.8343C37.325 50.8343 36.7749 50.2916 36.7749 49.6129C36.7749 48.9272 37.325 48.3772 38.0035 48.3772C38.6749 48.3772 39.2249 48.9272 39.2249 49.6129C39.2249 50.2916 38.6749 50.8343 38.0035 50.8343ZM17.3607 46.0774V19.9917C17.3607 18.306 18.7392 16.9274 20.425 16.9274H55.575C57.2606 16.9274 58.6393 18.306 58.6393 19.9917V46.0774H17.3607Z" fill="white"/>
<path d="M50.8104 22.5701C49.9176 22.5701 49.1675 23.1275 48.8747 23.9202H40.1176C39.8248 23.1275 39.0676 22.5701 38.1819 22.5701C37.2962 22.5701 36.5461 23.1275 36.2533 23.9202H27.1248C26.8318 23.1275 26.0819 22.5701 25.1891 22.5701C24.0533 22.5701 23.1318 23.4916 23.1318 24.6345C23.1318 25.7701 24.0533 26.6916 25.1891 26.6916C26.0819 26.6916 26.8318 26.1346 27.1248 25.3488H32.239C28.5033 27.3274 25.9034 31.1771 25.689 35.6487H25.232C24.8248 35.6487 24.4891 35.9773 24.4891 36.3916V38.7057C24.4891 39.1131 24.8248 39.4486 25.232 39.4486H27.5534C27.9604 39.4486 28.2963 39.1131 28.2963 38.7057V36.3916C28.2963 35.9773 27.9604 35.6487 27.5534 35.6487H27.1176C27.3961 30.4845 31.2961 26.2629 36.3034 25.4845C36.5247 25.956 36.9033 26.3271 37.3818 26.5343C37.3748 26.5486 37.3675 26.5559 37.3605 26.5702L32.0962 37.0986C31.9748 37.3487 32.0034 37.6559 32.1889 37.8701C32.3675 38.0915 32.6605 38.1843 32.9318 38.1058L38.0033 36.663L43.0677 38.1058C43.4024 38.1804 43.6496 38.0734 43.8104 37.8701C43.9963 37.6559 44.0318 37.3487 43.9033 37.0986L38.6676 26.6274C39.2676 26.4917 39.7676 26.0844 40.0319 25.5417C44.8818 26.4631 48.6034 30.5989 48.8747 35.6487H48.4463C48.0391 35.6487 47.7034 35.9773 47.7034 36.3916V38.7057C47.7034 39.1131 48.0391 39.4486 48.4463 39.4486H50.7677C51.1747 39.4486 51.5106 39.1131 51.5106 38.7057V36.3916C51.5106 35.9773 51.1747 35.6487 50.7677 35.6487H50.3033C50.089 31.1771 47.489 27.3274 43.7533 25.3488H48.8747C49.1675 26.1346 49.9176 26.6916 50.8104 26.6916C51.9462 26.6916 52.8676 25.7701 52.8676 24.6345C52.8676 23.4916 51.9462 22.5701 50.8104 22.5701Z" fill="white"/>
<defs>
<linearGradient id="paint0_linear_1_1681" x1="77" y1="38.5" x2="0" y2="38.5" gradientUnits="userSpaceOnUse">
<stop stop-color="#F44F2C"/>
<stop offset="1" stop-color="#CB0E69"/>
</linearGradient>
</defs>
</svg>
