<svg id="Layer_1" enable-background="new 0 0 512 512" viewBox="0 0 512 512" xmlns="http://www.w3.org/2000/svg"><path d="m337.3 61.8h-300.3v108.5h300.3zm-268.3 160c-3.3 0-6-2.7-6-6s2.7-6 6-6h88.6c3.3 0 6 2.7 6 6s-2.7 6-6 6zm0 37.5c-3.3 0-6-2.7-6-6s2.7-6 6-6h88.6c3.3 0 6 2.7 6 6s-2.7 6-6 6zm0 37.5c-3.3 0-6-2.7-6-6s2.7-6 6-6h88.6c3.3 0 6 2.7 6 6s-2.7 6-6 6zm0 37.5c-3.3 0-6-2.7-6-6s2.7-6 6-6h44.3c3.3 0 6 2.7 6 6s-2.7 6-6 6zm160.6-187.6c-2.6 2-6.4 1.5-8.4-1.1s-1.5-6.4 1.1-8.4l27.6-21.2-27.6-21.2c-2.6-2-3.1-5.8-1.1-8.4s5.8-3.1 8.4-1.1l33.8 25.9c3.1 2.4 3.3 7.1.1 9.6zm-30.5-63.3c1.6-2.9 5.3-3.8 8.2-2.2 2.9 1.7 3.8 5.3 2.2 8.2l-34.2 59.2c-1.7 2.9-5.3 3.8-8.2 2.2-2.9-1.7-3.8-5.3-2.2-8.2zm-47.1 53.8c2.6 2 3.1 5.8 1.1 8.4s-5.8 3.1-8.4 1.1l-33.9-25.9c-3.2-2.5-3.1-7.2.1-9.6l33.8-25.9c2.6-2 6.4-1.5 8.4 1.1s1.5 6.4-1.1 8.4l-27.7 21.2zm233.5 165.4c-7.6-4.9-16.8-7.3-26.1-6.3-2.9.4-5.8-1.5-6.5-4.4-10-37.8-44.5-64.9-84.5-64.9-53.2 0-94 47.1-86.6 99.7.3 2.6-1 5.2-3.5 6.3-39.1 17.4-48.8 68.9-18.3 99.3 11.1 11.1 26.4 17.9 43.3 17.9h212.4c16.5-.5 31.4-7.6 42.1-18.7 24-24.8 22.8-64.6-2.7-87.9-12.5-11.4-29.4-17.4-47-15.8-2.7.2-5.3-1.4-6.2-4.1-3-9-8.9-16.3-16.4-21.1zm-252.4 107.4c-10.1-33.8 5.3-69.9 36.3-86.1-5.6-58.4 40.3-109 99-109 26.4 0 50.8 10.4 68.9 27.8v-60.4h-300.3v227.7zm84.4-47.7c2.3-2.3 6.1-2.3 8.5 0 2.3 2.4 2.3 6.2 0 8.5l-4.6 4.6c52.5 41 126.3 41 178.8 0l-4.6-4.6c-2.3-2.4-2.3-6.2 0-8.5 2.4-2.3 6.2-2.3 8.5 0l17 17c2.3 2.4 2.3 6.2 0 8.5-2.4 2.3-6.2 2.3-8.5 0l-3.8-3.8c-57.3 45.7-138.6 45.7-195.9 0l-3.8 3.8c-2.4 2.3-6.2 2.3-8.5 0-2.4-2.4-2.4-6.2 0-8.5z"/></svg>