<svg width="77" height="77" viewBox="0 0 77 77" fill="none" xmlns="http://www.w3.org/2000/svg">
<rect width="77" height="77" fill="url(#paint0_linear_1_1700)"/>
<path d="M60.7266 32.2334C59.672 44.6963 47.7774 44.9307 54.1466 60.3418C54.3985 60.9531 54.335 61.5957 53.9669 62.1465C53.6016 62.6973 53.0313 62.999 52.3692 62.999H32.3556C31.4561 62.999 30.6973 62.4043 30.4874 61.5322L29.4132 57.1113C22.3546 58.5479 17.3438 58.3076 20.1788 51.6553C18.4571 51.0684 17.8927 49.2969 19.8243 48.5107C18.8448 48.2256 17.2247 46.9111 18.9659 45.4102C17.2804 45.3633 13.6729 45.335 16.0645 41.4678C19.8985 36.5459 19.9288 34.4531 19.921 32.1445C19.9181 31.8398 20.0264 31.5771 20.2423 31.3613C20.4552 31.1484 20.7188 31.0371 21.0206 31.0371H23.2432V25.667C22.7862 25.3906 22.4815 24.8916 22.4815 24.3184C22.4815 23.4521 23.1847 22.752 24.0509 22.752C24.9171 22.752 25.6173 23.4521 25.6173 24.3184C25.6173 24.8916 25.3126 25.3896 24.8556 25.6641V31.0371H28.3077V19.752C27.8507 19.4775 27.544 18.9766 27.544 18.4062C27.544 17.54 28.2472 16.8369 29.1134 16.8369C29.9796 16.8369 30.6827 17.54 30.6827 18.4062C30.6827 18.9766 30.3751 19.4775 29.919 19.752V31.0381H31.92V36.5137C31.92 38.1279 33.2374 39.4453 34.8487 39.4453H45.7999C47.4141 39.4453 48.7315 38.1279 48.7315 36.5137V31.0381H50.7305V19.752C50.2735 19.4775 49.9688 18.9766 49.9688 18.4062C49.9688 17.54 50.672 16.8369 51.5382 16.8369C52.4044 16.8369 53.1046 17.54 53.1046 18.4062C53.1046 18.9766 52.7999 19.4775 52.3429 19.752V31.0381H55.795V25.665C55.338 25.3906 55.0313 24.8926 55.0313 24.3193C55.0313 23.4531 55.7345 22.7529 56.6007 22.7529C57.4669 22.7529 58.17 23.4531 58.17 24.3193C58.17 24.8926 57.8624 25.3906 57.4063 25.668V31.0381H59.629C59.9503 31.0381 60.2237 31.1602 60.4405 31.3955C60.6573 31.6299 60.754 31.915 60.7266 32.2334ZM39.1729 30.3789L38.6329 31.625H39.713L39.1729 30.3789ZM33.5313 36.5137V25.5625C33.5313 24.8398 34.1241 24.2451 34.8487 24.2451H36.1192V15.915C35.6622 15.6406 35.3575 15.1396 35.3575 14.5693C35.3575 13.7031 36.0606 13 36.9268 13C37.793 13 38.4932 13.7031 38.4932 14.5693C38.4932 15.1396 38.1886 15.6406 37.7315 15.915V24.2441H42.9161V15.915C42.4591 15.6406 42.1524 15.1396 42.1524 14.5693C42.1524 13.7031 42.8556 13 43.7218 13C44.588 13 45.2911 13.7031 45.2911 14.5693C45.2911 15.1396 44.9835 15.6406 44.5274 15.915V24.2441H45.7979C46.5235 24.2441 47.1153 24.8389 47.1153 25.5615V36.5127C47.1153 37.2383 46.5225 37.833 45.7979 37.833H34.8497C34.1241 37.834 33.5313 37.2383 33.5313 36.5137ZM42.9932 33.7207C42.9932 34.166 43.3536 34.5264 43.7989 34.5264C44.2442 34.5264 44.6046 34.166 44.6046 33.7207V28.3584C44.6046 27.9131 44.2442 27.5527 43.7989 27.5527C43.3536 27.5527 42.9932 27.9131 42.9932 28.3584V33.7207ZM36.5352 34.457C36.9425 34.6318 37.4132 34.4463 37.5899 34.0391L37.9356 33.2393H40.4102L40.7559 34.0391C40.9327 34.4463 41.4034 34.6318 41.8106 34.457C42.2208 34.2803 42.4054 33.8096 42.2315 33.4023L39.9093 28.04C39.8321 27.8604 39.6876 27.7051 39.4913 27.6221C39.0841 27.4453 38.6114 27.6328 38.4366 28.04L36.1143 33.4023C35.9395 33.8086 36.128 34.2793 36.5352 34.457Z" fill="white"/>
<defs>
<linearGradient id="paint0_linear_1_1700" x1="77" y1="38.5" x2="0" y2="38.5" gradientUnits="userSpaceOnUse">
<stop stop-color="#FFAC34"/>
<stop offset="1" stop-color="#FEC539"/>
</linearGradient>
</defs>
</svg>
