<svg id="Layer_1" enable-background="new 0 0 512 512" viewBox="0 0 512 512" xmlns="http://www.w3.org/2000/svg"><path d="m488.72 196.95c-10.8 127.62-132.6 130.02-67.38 287.83 2.58 6.26 1.93 12.84-1.84 18.48-3.74 5.64-9.58 8.73-16.36 8.73h-204.94c-9.21 0-16.98-6.09-19.13-15.02l-11-45.27c-72.28 14.71-123.59 12.25-94.56-55.87-17.63-6.01-23.41-24.15-3.63-32.2-10.03-2.92-26.62-16.38-8.79-31.75-17.26-.48-54.2-.77-29.71-40.37 39.26-50.4 39.57-71.83 39.49-95.47-.03-3.12 1.08-5.81 3.29-8.02 2.18-2.18 4.88-3.32 7.97-3.32h22.76v-54.99c-4.68-2.83-7.8-7.94-7.8-13.81 0-8.87 7.2-16.04 16.07-16.04s16.04 7.17 16.04 16.04c0 5.87-3.12 10.97-7.8 13.78v55.02h35.35v-115.56c-4.68-2.81-7.82-7.94-7.82-13.78 0-8.87 7.2-16.07 16.07-16.07s16.07 7.2 16.07 16.07c0 5.84-3.15 10.97-7.82 13.78v115.57h20.49v56.07c0 16.53 13.49 30.02 29.99 30.02h112.14c16.53 0 30.02-13.49 30.02-30.02v-56.07h20.47v-115.57c-4.68-2.81-7.8-7.94-7.8-13.78 0-8.87 7.2-16.07 16.07-16.07s16.04 7.2 16.04 16.07c0 5.84-3.12 10.97-7.8 13.78v115.57h35.35v-55.02c-4.68-2.81-7.82-7.91-7.82-13.78 0-8.87 7.2-16.04 16.07-16.04s16.07 7.17 16.07 16.04c0 5.87-3.15 10.97-7.82 13.81v54.99h22.76c3.29 0 6.09 1.25 8.31 3.66 2.22 2.4 3.21 5.32 2.93 8.58zm-220.71-18.99-5.53 12.76h11.06zm-57.77 62.82v-112.14c0-7.4 6.07-13.49 13.49-13.49h13.01v-85.3c-4.68-2.81-7.8-7.94-7.8-13.78 0-8.87 7.2-16.07 16.07-16.07s16.04 7.2 16.04 16.07c0 5.84-3.12 10.97-7.8 13.78v85.29h53.09v-85.29c-4.68-2.81-7.82-7.94-7.82-13.78 0-8.87 7.2-16.07 16.07-16.07s16.07 7.2 16.07 16.07c0 5.84-3.15 10.97-7.82 13.78v85.29h13.01c7.43 0 13.49 6.09 13.49 13.49v112.14c0 7.43-6.07 13.52-13.49 13.52h-112.11c-7.43.01-13.5-6.09-13.5-13.51zm96.89-28.6c0 4.56 3.69 8.25 8.25 8.25s8.25-3.69 8.25-8.25v-54.91c0-4.56-3.69-8.25-8.25-8.25s-8.25 3.69-8.25 8.25zm-66.13 7.54c4.17 1.79 8.99-.11 10.8-4.28l3.54-8.19h25.34l3.54 8.19c1.81 4.17 6.63 6.07 10.8 4.28 4.2-1.81 6.09-6.63 4.31-10.8l-23.78-54.91c-.79-1.84-2.27-3.43-4.28-4.28-4.17-1.81-9.01.11-10.8 4.28l-23.78 54.91c-1.79 4.16.14 8.98 4.31 10.8z"/></svg>