<svg width="77" height="77" viewBox="0 0 77 77" fill="none" xmlns="http://www.w3.org/2000/svg">
<rect width="77" height="77" fill="url(#paint0_linear_1_1703)"/>
<g clip-path="url(#clip0_1_1703)">
<path d="M61 26.6348V20.043C61 17.8621 59.2258 16.0879 57.0449 16.0879H19.9551C17.7742 16.0879 16 17.8621 16 20.043V26.6348H61ZM46.4102 21.3613H54.3203C55.0484 21.3613 55.6387 21.9516 55.6387 22.6797C55.6387 23.4078 55.0484 23.998 54.3203 23.998H46.4102C45.6821 23.998 45.0918 23.4078 45.0918 22.6797C45.0918 21.9516 45.6821 21.3613 46.4102 21.3613ZM33.2266 21.3613C33.9546 21.3613 34.5449 21.9516 34.5449 22.6797C34.5449 23.4078 33.9546 23.998 33.2266 23.998C32.4985 23.998 31.9082 23.4078 31.9082 22.6797C31.9082 21.9516 32.4985 21.3613 33.2266 21.3613ZM27.9531 21.3613C28.6812 21.3613 29.2715 21.9516 29.2715 22.6797C29.2715 23.4078 28.6812 23.998 27.9531 23.998C27.225 23.998 26.6348 23.4078 26.6348 22.6797C26.6348 21.9516 27.225 21.3613 27.9531 21.3613ZM22.6797 21.3613C23.4078 21.3613 23.998 21.9516 23.998 22.6797C23.998 23.4078 23.4078 23.998 22.6797 23.998C21.9516 23.998 21.3613 23.4078 21.3613 22.6797C21.3613 21.9516 21.9516 21.3613 22.6797 21.3613Z" fill="white"/>
<path d="M16 29.2715V56.957C16 59.1379 17.7742 60.9121 19.9551 60.9121H57.0449C59.2258 60.9121 61 59.1379 61 56.957V29.2715H16ZM31.4134 48.0174C31.982 48.4722 32.0741 49.3018 31.6193 49.8704C31.1646 50.4389 30.3348 50.5312 29.7663 50.0763L23.1745 44.8028C22.5154 44.2757 22.515 43.2714 23.1745 42.7439L29.7663 37.4704C30.3346 37.0156 31.1644 37.1077 31.6193 37.6763C32.0741 38.2449 31.982 39.0745 31.4134 39.5293L26.1085 43.7734L31.4134 48.0174ZM43.6668 35.0643L35.7567 53.5213C35.4699 54.1904 34.695 54.5007 34.0256 54.2137C33.3564 53.9269 33.0463 53.1518 33.3332 52.4826L41.2433 34.0256C41.5302 33.3564 42.3052 33.0464 42.9744 33.3332C43.6436 33.62 43.9537 34.395 43.6668 35.0643ZM53.8255 44.8029L47.2337 50.0763C46.6661 50.5306 45.8362 50.4399 45.3807 49.8705C44.9259 49.3019 45.018 48.4722 45.5866 48.0175L50.8915 43.7734L45.5866 39.5295C45.018 39.0746 44.9259 38.245 45.3807 37.6765C45.8354 37.1079 46.6651 37.0157 47.2337 37.4706L53.8255 42.7441C54.4846 43.2711 54.485 44.2754 53.8255 44.8029Z" fill="white"/>
</g>
<defs>
<linearGradient id="paint0_linear_1_1703" x1="77" y1="38.5" x2="0" y2="38.5" gradientUnits="userSpaceOnUse">
<stop stop-color="#68D1ED"/>
<stop offset="1" stop-color="#5B9AF7"/>
</linearGradient>
<clipPath id="clip0_1_1703">
<rect width="45" height="45" fill="white" transform="translate(16 16)"/>
</clipPath>
</defs>
</svg>
