<svg id="Layer_1" enable-background="new 0 0 70 70" height="512" viewBox="0 0 70 70" width="512" xmlns="http://www.w3.org/2000/svg"><g id="Vector_Illustration"><path d="m59.1848145 56.2180176c3.6999512 0 6.7102051-3 6.7102051-6.699707v-39.7299805c0-3.4702148-2.8200684-6.2900391-6.2900391-6.2900391h-49.209961c-3.4702148 0-6.2900391 2.8198242-6.2900391 6.2900391v39.7299805c0 3.699707 3.0097656 6.699707 6.7099609 6.699707h15.3464357v3.8466797h-1.802002c-1.6459961 0-2.9868164 1.3291016-2.9868164 2.9750977v2.2426758c0 .6708984.548584 1.2192383 1.2192383 1.2192383h24.8208008c.6706543 0 1.2192383-.5483398 1.2192383-1.2192383v-2.2426758c0-1.6459961-1.3408203-2.9750977-2.9868164-2.9750977h-1.8066406v-3.8466797zm-24.1799317-3.25c-.9499512 0-1.7199707-.7597656-1.7199707-1.7099609 0-.9599609.7700195-1.7299805 1.7199707-1.7299805.9399414 0 1.7099609.7700195 1.7099609 1.7299805.0000001.9501953-.7700195 1.7099609-1.7099609 1.7099609zm-28.8999023-6.659668v-36.5200195c0-2.3598633 1.9299316-4.2900391 4.2900391-4.2900391h49.2099609c2.3598633 0 4.2900391 1.9301758 4.2900391 4.2900391v36.5200195z"/><path d="m52.9348145 13.3981934c-1.25 0-2.3000488.7802734-2.7099609 1.8901367h-12.2600098c-.4099121-1.1098633-1.4699707-1.8901367-2.7099609-1.8901367s-2.2900391.7802734-2.6999512 1.8901367h-12.7800294c-.4101563-1.1098633-1.4599609-1.8901367-2.7099609-1.8901367-1.5900879 0-2.880127 1.2900391-2.880127 2.8901367 0 1.5898438 1.2900391 2.8798828 2.880127 2.8798828 1.25 0 2.2998047-.7797852 2.7099609-1.8798828h7.1599121c-5.2299805 2.7700195-8.869873 8.159668-9.1699219 14.4199219h-.6398925c-.5700684 0-1.0400391.4599609-1.0400391 1.0400391v3.2397461c0 .5703125.4699707 1.0400391 1.0400391 1.0400391h3.25c.5698242 0 1.0400391-.4697266 1.0400391-1.0400391v-3.2397462c0-.5800781-.4702148-1.0400391-1.0400391-1.0400391h-.6101074c.3898926-7.2299804 5.8498535-13.1401367 12.8601074-14.2299804.3098145.6601563.8398438 1.1796875 1.5097656 1.4697266-.0097656.0200195-.0200195.0302734-.0297852.050293l-7.3701172 14.7397461c-.1699219.3500977-.1298828.7802734.1298828 1.0800781.25.3100586.6601563.4399414 1.0400391.3300781l7.1000977-2.0200195 7.0900879 2.0200195c.4686546.1044273.8147278-.0454178 1.0397949-.3300781.2602539-.2998047.3100586-.7299805.130127-1.0800781l-7.3300781-14.659668c.8400879-.1899414 1.5400391-.7602539 1.9101563-1.5200195 6.7897949 1.2900391 12 7.0800781 12.3798828 14.1499023h-.5998536c-.5700684 0-1.0400391.4599609-1.0400391 1.0400391v3.2397461c0 .5703125.4699707 1.0400391 1.0400391 1.0400391h3.25c.5698242 0 1.0400391-.4697266 1.0400391-1.0400391v-3.2397462c0-.5800781-.4702148-1.0400391-1.0400391-1.0400391h-.6501465c-.3000488-6.2602539-3.9399414-11.6499023-9.1699219-14.4199219h7.1699219c.4099121 1.1000977 1.4599609 1.8798828 2.7099609 1.8798828 1.5900879 0 2.880127-1.2900391 2.880127-2.8798828 0-1.6000976-1.2900391-2.8901366-2.8801269-2.8901366z"/></g></svg>