<svg width="77" height="77" viewBox="0 0 77 77" fill="none" xmlns="http://www.w3.org/2000/svg">
<rect width="77" height="77" fill="url(#paint0_linear_1_1701)"/>
<path fill-rule="evenodd" clip-rule="evenodd" d="M47.123 30.6875L42.5792 44.325C42.3063 45.1417 42.748 46.0271 43.5667 46.3C44.3855 46.5729 45.2709 46.1312 45.5438 45.3125L50.0876 31.675C50.3605 30.8583 49.9188 29.9729 49.1001 29.7C48.2813 29.4271 47.3959 29.8687 47.123 30.6875Z" fill="white"/>
<path fill-rule="evenodd" clip-rule="evenodd" d="M51.0999 34.5604L54.5395 38L51.0999 41.4396C50.4895 42.05 50.4895 43.0396 51.0999 43.65C51.7103 44.2604 52.6999 44.2604 53.3103 43.65L57.8541 39.1042C58.4645 38.4937 58.4645 37.5062 57.8541 36.8958L53.3103 32.35C52.6999 31.7396 51.7103 31.7396 51.0999 32.35C50.4895 32.9604 50.4895 33.95 51.0999 34.5604Z" fill="white"/>
<path fill-rule="evenodd" clip-rule="evenodd" d="M39.3561 32.35L34.8123 36.8958C34.2019 37.5062 34.2019 38.4937 34.8123 39.1042L39.3561 43.65C39.9665 44.2604 40.9561 44.2604 41.5665 43.65C42.1769 43.0396 42.1769 42.05 41.5665 41.4396L38.1269 38L41.5665 34.5604C42.1769 33.95 42.1769 32.9604 41.5665 32.35C40.9561 31.7396 39.9665 31.7396 39.3561 32.35Z" fill="white"/>
<path fill-rule="evenodd" clip-rule="evenodd" d="M47.8958 44.8417L47.5188 45.9708C46.8833 47.8792 44.8167 48.9125 42.9083 48.2771C41.8542 47.925 41.0667 47.1396 40.6813 46.1833C39.6771 46.2437 38.6521 45.8896 37.8833 45.1229L33.3396 40.5771C31.9146 39.1542 31.9146 36.8458 33.3396 35.4229L37.8833 30.8771C39.3063 29.4542 41.6167 29.4542 43.0396 30.8771C43.6813 31.5187 44.0333 32.3396 44.0979 33.1792L45.1479 30.0292C45.5771 28.7417 46.6542 27.8542 47.8958 27.6062V21.3333C47.8958 19.8146 47.2917 18.3562 46.2188 17.2812C45.1438 16.2083 43.6854 15.6042 42.1667 15.6042C37.075 15.6042 28.5083 15.6042 23.4167 15.6042C21.8979 15.6042 20.4396 16.2083 19.3646 17.2812C18.2917 18.3562 17.6875 19.8146 17.6875 21.3333V54.6667C17.6875 56.1854 18.2917 57.6437 19.3646 58.7187C20.4396 59.7917 21.8979 60.3958 23.4167 60.3958H42.1667C43.6854 60.3958 45.1438 59.7917 46.2188 58.7187C47.2917 57.6437 47.8958 56.1854 47.8958 54.6667V44.8417ZM28.625 55.1875H36.9583C37.8208 55.1875 38.5208 54.4875 38.5208 53.625C38.5208 52.7625 37.8208 52.0625 36.9583 52.0625H28.625C27.7625 52.0625 27.0625 52.7625 27.0625 53.625C27.0625 54.4875 27.7625 55.1875 28.625 55.1875ZM41.125 18.7292H24.4583L25.7563 21.9729C26.2313 23.1604 27.3792 23.9375 28.6583 23.9375H36.925C38.2042 23.9375 39.3521 23.1604 39.8271 21.9729L41.125 18.7292Z" fill="white"/>
<defs>
<linearGradient id="paint0_linear_1_1701" x1="77" y1="38.5" x2="0" y2="38.5" gradientUnits="userSpaceOnUse">
<stop stop-color="#68D1ED"/>
<stop offset="1" stop-color="#5B9AF7"/>
</linearGradient>
</defs>
</svg>
